<?xml version="1.0" encoding="utf-8"?>
<!-- Generator: Adobe Illustrator 17.1.0, SVG Export Plug-In . SVG Version: 6.00 Build 0)  -->
<!DOCTYPE svg PUBLIC "-//W3C//DTD SVG 1.1//EN" "http://www.w3.org/Graphics/SVG/1.1/DTD/svg11.dtd">
<svg version="1.1" id="Layer_1" xmlns="http://www.w3.org/2000/svg" xmlns:xlink="http://www.w3.org/1999/xlink" x="0px" y="0px"
	 viewBox="0 0 320 36" enable-background="new 0 0 320 36" xml:space="preserve">
<g>
	<g>
		<path fill="#CC1515" d="M0,4.4h8.4l6.2,17.2l6.2-17.2H29L18,31.8h-7L0,4.4z"/>
		<path fill="#CC1515" d="M35.6,4.4h7.6v27.2h-7.6V4.4z"/>
		<path fill="#CC1515" d="M79.6,18L79.6,18c0-8,6.1-14.2,14.3-14.2c5.5,0,9.1,2.3,11.5,5.7l-5.7,4.4c-1.6-1.9-3.3-3.2-5.9-3.2
			c-3.8,0-6.5,3.2-6.5,7.2V18c0,4.1,2.7,7.3,6.5,7.3c2.8,0,4.5-1.3,6.1-3.3l5.7,4c-2.6,3.5-6,6.1-12,6.1
			C85.9,32.1,79.6,26.2,79.6,18z"/>
	</g>
	<g>
		<path fill="#111111" d="M68.3,0h6L57.1,36h-6L68.3,0z"/>
		<path fill="#111111" d="M127.9,32.2c-6,0-9.5-2.6-12-6.1l5.7-4c1.6,2,3.3,3.3,6.1,3.3c3.8,0,6.5-3.2,6.5-7.3V18
			c0-4-2.7-7.2-6.5-7.2c-2.6,0-4.4,1.2-5.9,3.2L116,9.5c2.4-3.3,6-5.7,11.5-5.7c8.2,0,14.3,6.2,14.3,14.2v0.1
			C141.9,26.2,135.6,32.2,127.9,32.2z"/>
		<path fill="#111111" d="M151.6,4.4h8l6.5,10.5l6.5-10.5h8v27.2H173V15.9l-7,10.7h-0.2L158.9,16v15.6h-7.4V4.4H151.6z"/>
		<path fill="#111111" d="M191.5,4.4h11.6c6.9,0,11.3,3.5,11.3,9.6l0,0c0,6.4-4.9,9.8-11.7,9.8H199v7.8h-7.5V4.4z M202.6,17.9
			c2.7,0,4.3-1.4,4.3-3.5v-0.1c0-2.3-1.6-3.6-4.3-3.6H199v7.2C199,17.9,202.6,17.9,202.6,17.9z"/>
		<path fill="#111111" d="M230,4.2h7.3l11.6,27.4h-8.1l-2-4.9h-10.5l-1.9,4.9h-7.9L230,4.2z M236.6,20.8l-3-7.7l-3.1,7.7H236.6z"/>
		<path fill="#111111" d="M257.3,4.4h7l11.2,14.4V4.4h7.5v27.2h-6.6l-11.6-14.9v14.9h-7.5V4.4z"/>
		<path fill="#111111" d="M302.1,21.4l-10.3-17h8.6l5.6,9.9l5.6-9.9h8.4l-10.3,16.9v10.3h-7.6L302.1,21.4L302.1,21.4z"/>
	</g>
</g>
</svg>
