<?xml version="1.0" encoding="utf-8"?>
<!-- Generator: Adobe Illustrator 17.1.0, SVG Export Plug-In . SVG Version: 6.00 Build 0)  -->
<!DOCTYPE svg PUBLIC "-//W3C//DTD SVG 1.1//EN" "http://www.w3.org/Graphics/SVG/1.1/DTD/svg11.dtd">
<svg version="1.1" id="Layer_1" xmlns="http://www.w3.org/2000/svg" xmlns:xlink="http://www.w3.org/1999/xlink" x="0px" y="0px"
	 viewBox="0 0 255.1 155.9" enable-background="new 0 0 255.1 155.9" xml:space="preserve">
<g>
	<g>
		<path fill="#FFFFFF" d="M0,67.1h6.7l4.9,13.7l4.9-13.7h6.5L14.4,89H8.8L0,67.1z"/>
		<path fill="#FFFFFF" d="M28.4,67.1h6.1v21.7h-6.1V67.1z"/>
		<path fill="#FFFFFF" d="M63.5,78L63.5,78c0-6.4,4.9-11.3,11.4-11.3c4.4,0,7.3,1.8,9.2,4.5l-4.5,3.5c-1.3-1.5-2.6-2.6-4.7-2.6
			c-3,0-5.2,2.6-5.2,5.7V78c0,3.3,2.2,5.8,5.2,5.8c2.2,0,3.6-1,4.9-2.6l4.5,3.2c-2.1,2.8-4.8,4.9-9.6,4.9
			C68.5,89.2,63.5,84.5,63.5,78z"/>
	</g>
	<g>
		<path fill="#FFFFFF" d="M54.5,63.6h4.8L45.5,92.3h-4.8L54.5,63.6z"/>
		<path fill="#FFFFFF" d="M102,89.3c-4.8,0-7.6-2.1-9.6-4.9l4.5-3.2c1.3,1.6,2.6,2.6,4.9,2.6c3,0,5.2-2.6,5.2-5.8V78
			c0-3.2-2.2-5.7-5.2-5.7c-2.1,0-3.5,1-4.7,2.6l-4.6-3.6c1.9-2.6,4.8-4.5,9.2-4.5c6.5,0,11.4,4.9,11.4,11.3V78
			C113.1,84.5,108.1,89.3,102,89.3z"/>
		<path fill="#FFFFFF" d="M120.9,67.1h6.4l5.2,8.4l5.2-8.4h6.4v21.7h-6.1V76.3l-5.6,8.5h-0.2l-5.5-8.5v12.4h-5.9L120.9,67.1
			L120.9,67.1z"/>
		<path fill="#FFFFFF" d="M152.7,67.1h9.2c5.5,0,9,2.8,9,7.7l0,0c0,5.1-3.9,7.8-9.3,7.8h-2.9v6.2h-6V67.1z M161.5,77.9
			c2.2,0,3.4-1.1,3.4-2.8V75c0-1.8-1.3-2.9-3.4-2.9h-2.9v5.7C158.7,77.9,161.5,77.9,161.5,77.9z"/>
		<path fill="#FFFFFF" d="M183.4,67h5.8l9.2,21.8H192l-1.6-3.9H182l-1.5,3.9h-6.3L183.4,67z M188.6,80.2l-2.4-6.1l-2.5,6.1H188.6z"
			/>
		<path fill="#FFFFFF" d="M205.1,67.1h5.6l8.9,11.5V67.1h6v21.7h-5.3l-9.2-11.9v11.9h-6V67.1z"/>
		<path fill="#FFFFFF" d="M240.8,80.7l-8.2-13.6h6.9L244,75l4.5-7.9h6.7l-8.2,13.5v8.2h-6.1L240.8,80.7L240.8,80.7z"/>
	</g>
</g>
</svg>
